<?xml version="1.0" encoding="UTF-8" standalone="no"?>
<!-- Created with Inkscape (http://www.inkscape.org/) -->

<svg
   xmlns:dc="http://purl.org/dc/elements/1.1/"
   xmlns:cc="http://creativecommons.org/ns#"
   xmlns:rdf="http://www.w3.org/1999/02/22-rdf-syntax-ns#"
   xmlns:svg="http://www.w3.org/2000/svg"
   xmlns="http://www.w3.org/2000/svg"
   xmlns:xlink="http://www.w3.org/1999/xlink"
   xmlns:sodipodi="http://sodipodi.sourceforge.net/DTD/sodipodi-0.dtd"
   xmlns:inkscape="http://www.inkscape.org/namespaces/inkscape"
   width="114"
   height="114"
   id="svg2"
   version="1.1"
   inkscape:version="0.48.2 r9819"
   sodipodi:docname="BookIcon114x114.svg">
  <defs
     id="defs4">
    <linearGradient
       id="linearGradient3840">
      <stop
         style="stop-color:#000000;stop-opacity:1;"
         offset="0"
         id="stop3842" />
      <stop
         style="stop-color:#000000;stop-opacity:0;"
         offset="1"
         id="stop3844" />
    </linearGradient>
    <linearGradient
       id="linearGradient3808">
      <stop
         style="stop-color:#111111;stop-opacity:1;"
         offset="0"
         id="stop3810" />
      <stop
         style="stop-color:#c8c7c6;stop-opacity:0;"
         offset="1"
         id="stop3812" />
    </linearGradient>
    <linearGradient
       id="linearGradient3758">
      <stop
         style="stop-color:#886f29;stop-opacity:1;"
         offset="0"
         id="stop3760" />
      <stop
         style="stop-color:#e5b22f;stop-opacity:1;"
         offset="1"
         id="stop3762" />
    </linearGradient>
    <linearGradient
       inkscape:collect="always"
       xlink:href="#linearGradient3758"
       id="linearGradient3764"
       x1="53.53809"
       y1="1037.9038"
       x2="53.538082"
       y2="1024.7719"
       gradientUnits="userSpaceOnUse" />
    <linearGradient
       inkscape:collect="always"
       xlink:href="#linearGradient3758"
       id="linearGradient3034"
       gradientUnits="userSpaceOnUse"
       x1="53.53809"
       y1="1037.9038"
       x2="53.538082"
       y2="1024.7719"
       gradientTransform="translate(2.8996187,9.0913728)" />
    <linearGradient
       inkscape:collect="always"
       xlink:href="#linearGradient3758"
       id="linearGradient3804"
       gradientUnits="userSpaceOnUse"
       x1="53.53809"
       y1="1037.9038"
       x2="53.538082"
       y2="1024.7719"
       gradientTransform="translate(4.8996187,0)" />
    <linearGradient
       inkscape:collect="always"
       xlink:href="#linearGradient3808"
       id="linearGradient3814"
       x1="116.44037"
       y1="1006.1477"
       x2="91.43911"
       y2="997.05634"
       gradientUnits="userSpaceOnUse"
       gradientTransform="translate(5.2422544,-3.2626907)" />
    <linearGradient
       inkscape:collect="always"
       xlink:href="#linearGradient3840"
       id="linearGradient3846"
       x1="77.727325"
       y1="1016.2288"
       x2="24.895977"
       y2="946.27582"
       gradientUnits="userSpaceOnUse"
       gradientTransform="matrix(1.011817,0,0,1,4.4637253,1.0101525)" />
  </defs>
  <sodipodi:namedview
     id="base"
     pagecolor="#ffffff"
     bordercolor="#666666"
     borderopacity="1.0"
     inkscape:pageopacity="0.0"
     inkscape:pageshadow="2"
     inkscape:zoom="1.979899"
     inkscape:cx="3.85775"
     inkscape:cy="13.890005"
     inkscape:document-units="px"
     inkscape:current-layer="layer1"
     showgrid="false"
     inkscape:window-width="1280"
     inkscape:window-height="686"
     inkscape:window-x="0"
     inkscape:window-y="0"
     inkscape:window-maximized="1" />
  <metadata
     id="metadata7">
    <rdf:RDF>
      <cc:Work
         rdf:about="">
        <dc:format>image/svg+xml</dc:format>
        <dc:type
           rdf:resource="http://purl.org/dc/dcmitype/StillImage" />
        <dc:title />
      </cc:Work>
    </rdf:RDF>
  </metadata>
  <g
     inkscape:label="Layer 1"
     inkscape:groupmode="layer"
     id="layer1"
     transform="translate(0,-938.36218)">
    <path
       style="fill:url(#linearGradient3034);fill-opacity:1;fill-rule:evenodd;stroke:none"
       d="m 5.425,953.55614 99.34962,0 c 0.99566,0.0446 1.72346,0.40178 2.36197,0.98214 0.80936,0.82113 0.83446,1.33362 1.07143,2.04027 l 0,81.78575 -0.3125,1.7411 -0.625,1.3761 -1.46911,0.9821 -1.5625,0.4911 -98.81391,0 z"
       id="path3030"
       inkscape:connector-curvature="0"
       sodipodi:nodetypes="ccccccccccc" />
    <path
       style="fill:url(#linearGradient3814);fill-opacity:1;fill-rule:evenodd;stroke:none"
       d="m 5.7676354,947.57916 99.3496246,0 c 0.99566,0.0446 1.72346,0.40178 2.36197,0.98214 0.80936,0.82113 0.83446,1.33362 1.07143,2.04028 l 0,81.78572 -0.3125,1.7411 -0.625,1.376 -1.46911,0.9822 -1.5625,0.491 -98.8139146,0 z"
       id="path3806"
       inkscape:connector-curvature="0"
       sodipodi:nodetypes="ccccccccccc" />
    <path
       sodipodi:nodetypes="ccccccccccc"
       inkscape:connector-curvature="0"
       id="path3032"
       d="m 3.425,950.84185 99.34962,0 c 0.99566,0.0446 1.72346,0.40178 2.36197,0.98214 0.80936,0.82113 0.83446,1.33362 1.07143,2.04028 l 0,81.78573 -0.3125,1.7411 -0.625,1.376 -1.46911,0.9822 -1.5625,0.491 -98.81391,0 z"
       style="fill:#fffbf3;fill-opacity:1;fill-rule:evenodd;stroke:none" />
    <path
       sodipodi:nodetypes="ccccccccccc"
       inkscape:connector-curvature="0"
       id="path3756"
       d="m 7.425,944.46477 99.34962,0 c 0.99566,0.0446 1.72346,0.40178 2.36197,0.98214 0.80936,0.82113 0.83446,1.33362 1.07143,2.04027 l 0,81.78572 -0.3125,1.7411 -0.625,1.3761 -1.46911,0.9821 -1.5625,0.4911 -98.81391,0 z"
       style="fill:url(#linearGradient3804);fill-opacity:1;fill-rule:evenodd;stroke:none" />
    <path
       style="fill:#e5b22f;fill-opacity:1;fill-rule:evenodd;stroke:none"
       d="m 7.425,941.75048 99.34962,0 c 0.99566,0.0446 1.72346,0.40178 2.36197,0.98214 0.80936,0.82113 0.83446,1.33362 1.07143,2.04027 l 0,81.78571 -0.3125,1.7411 -0.625,1.3761 -1.46911,0.9821 -1.5625,0.4911 -98.81391,0 z"
       id="rect2985"
       inkscape:connector-curvature="0"
       sodipodi:nodetypes="ccccccccccc" />
    <rect
       y="958.39764"
       x="18.608627"
       height="58.588848"
       width="85.599998"
       id="rect3830"
       style="fill:url(#linearGradient3846);fill-opacity:1;fill-rule:evenodd;stroke:none" />
    <rect
       style="fill:#b9b9be;fill-opacity:1;fill-rule:evenodd;stroke:#fffcfc;stroke-width:1px;stroke-linecap:butt;stroke-linejoin:miter;stroke-opacity:1"
       id="rect3828"
       width="84.600273"
       height="58.588848"
       x="18.031607"
       y="956.90277" />
    <path
       style="fill:#3d1e00;fill-opacity:1;fill-rule:evenodd;stroke:none"
       d="m 3.8802118,942.36559 c 0.8773892,-0.55784 2.004421,-0.59494 2.004421,-0.59494 l 7.2071772,-0.0185 0,101.20105 -7.4849463,0 c 0,0 -1.388079,-0.2108 -1.8477387,-0.6792 -0.4371498,-0.4453 -0.6130361,-1.7689 -0.6130361,-1.7689 L 3.036,944.2669 c 0,0 0.149328,-1.45951 0.8442118,-1.90131 z"
       id="rect3056"
       inkscape:connector-curvature="0"
       sodipodi:nodetypes="sccccaccs" />
    <path
       style="fill:#fffbf3;fill-opacity:1;stroke:#3d1e00;stroke-width:2.70000004999999987;stroke-linecap:butt;stroke-linejoin:miter;stroke-miterlimit:4;stroke-opacity:1;stroke-dasharray:none"
       d="m 13.263751,1032.475 -1.836402,0.01 -3.8380643,0 c 0,0 -2.9654549,0.822 -2.9422275,3.5747 0.022979,2.7232 -0.4244784,5.1799 2.7451644,5.5771 3.1696424,-0.045 5.9419874,0 5.9419874,0"
       id="path3829"
       inkscape:connector-curvature="0"
       sodipodi:nodetypes="cccscc" />
  </g>
</svg>
